2014019_C4_05_grf
version=1
nRows=12
nColumns=19
inDegrees=no
endheader
time	ground_force_1_vx	ground_force_1_vy	ground_force_1_vz	ground_force_1_px	ground_force_1_py	ground_force_1_pz	ground_force_1_mx	ground_force_1_my	ground_force_1_mz	ground_force_2_vx	ground_force_2_vy	ground_force_2_vz	ground_force_2_px	ground_force_2_py	ground_force_2_pz	ground_force_2_mx	ground_force_2_my	ground_force_2_mz
      0.43000000	      0.00000000	      0.00000000	      0.00000000	      0.00000000	      0.00000000	      0.00000000	      0.00000000	      0.00000000	      0.00000000	      3.31190648	    644.68476176	     27.57802606	     -0.86563654	     -0.00200000	      0.15731294	      0.00000000	     -2.39160918	     -0.00000000
      0.43100000	      0.00000000	      0.00000000	      0.00000000	      0.00000000	      0.00000000	      0.00000000	      0.00000000	      0.00000000	      0.00000000	      3.50610923	    646.50477469	     27.77968999	     -0.86509490	     -0.00200000	      0.15727408	      0.00000000	     -2.38587167	      0.00000000
      0.43200000	      0.00000000	      0.00000000	      0.00000000	      0.00000000	      0.00000000	      0.00000000	      0.00000000	      0.00000000	      0.00000000	      3.69684747	    648.32250774	     27.98816934	     -0.86455087	     -0.00200000	      0.15723372	     -0.00000000	     -2.37894537	     -0.00000000
      0.43300000	      0.00000000	      0.00000000	      0.00000000	      0.00000000	      0.00000000	      0.00000000	      0.00000000	      0.00000000	      0.00000000	      3.88348813	    650.13735741	     28.20472885	     -0.86400401	     -0.00200000	      0.15719163	      0.00000000	     -2.37057833	      0.00000000
      0.43400000	      0.00000000	      0.00000000	      0.00000000	      0.00000000	      0.00000000	      0.00000000	      0.00000000	      0.00000000	      0.00000000	      4.06705588	    651.94992721	     28.42739597	     -0.86345506	     -0.00200000	      0.15714823	      0.00000000	     -2.36109798	      0.00000000
      0.43500000	      0.00000000	      0.00000000	      0.00000000	      0.00000000	      0.00000000	      0.00000000	      0.00000000	      0.00000000	      0.00000000	      4.24706726	    653.75971422	     28.65723055	     -0.86290370	     -0.00200000	      0.15710331	      0.00000000	     -2.35027542	      0.00000000
      0.43600000	      0.00000000	      0.00000000	      0.00000000	      0.00000000	      0.00000000	      0.00000000	      0.00000000	      0.00000000	      0.00000000	      4.42448398	    655.56722134	     28.89242209	     -0.86235062	     -0.00200000	      0.15705723	      0.00000000	     -2.33842009	     -0.00000000
      0.43700000	      0.00000000	      0.00000000	      0.00000000	      0.00000000	      0.00000000	      0.00000000	      0.00000000	      0.00000000	      0.00000000	      4.59900312	    657.37201273	     29.13382556	     -0.86179560	     -0.00200000	      0.15700985	     -0.00000000	     -2.32532496	      0.00000000
      0.43800000	      0.00000000	      0.00000000	      0.00000000	      0.00000000	      0.00000000	      0.00000000	      0.00000000	      0.00000000	      0.00000000	      4.77150409	    659.17472541	     29.37981673	     -0.86123923	     -0.00200000	      0.15696148	      0.00000000	     -2.31128142	     -0.00000000
      0.43900000	      0.00000000	      0.00000000	      0.00000000	      0.00000000	      0.00000000	      0.00000000	      0.00000000	      0.00000000	      0.00000000	      4.94188699	    660.97499058	     29.63106800	     -0.86068145	     -0.00200000	      0.15691202	      0.00000000	     -2.29611027	      0.00000000
      0.44000000	      0.00000000	      0.00000000	      0.00000000	      0.00000000	      0.00000000	      0.00000000	      0.00000000	      0.00000000	      0.00000000	      5.11091668	    662.77344525	     29.88614328	     -0.86012273	     -0.00200000	      0.15686175	      0.00000000	     -2.28008188	      0.00000000
      0.44100000	      0.00000000	      0.00000000	      0.00000000	      0.00000000	      0.00000000	      0.00000000	      0.00000000	      0.00000000	      0.00000000	      5.27870352	    664.56988826	     30.14552314	     -0.85956309	     -0.00200000	      0.15681058	     -0.00000000	     -2.26303896	     -0.00000000
